<svg width="24.000000" height="24.000000" viewBox="0 0 24 24" fill="none" xmlns="http://www.w3.org/2000/svg" xmlns:xlink="http://www.w3.org/1999/xlink">
	<desc>
			Created with Pixso.
	</desc>
	<defs>
		<clipPath id="clip6_19">
			<rect id="tabler-icon-bus" width="24.000000" height="24.000000" fill="white" fill-opacity="0"/>
		</clipPath>
	</defs>
	<rect id="tabler-icon-bus" width="24.000000" height="24.000000" fill="#FFFFFF" fill-opacity="0"/>
	<g clip-path="url(#clip6_19)">
		<path id="Vector" d="M4.58582 18.4142C4.96082 18.7893 5.4696 19 6 19C6.5304 19 7.03918 18.7893 7.41418 18.4142C7.78931 18.0392 8 17.5304 8 17C8 16.4696 7.78931 15.9608 7.41418 15.5858C7.03918 15.2107 6.5304 15 6 15C5.4696 15 4.96082 15.2107 4.58582 15.5858C4.21069 15.9608 4 16.4696 4 17C4 17.5304 4.21069 18.0392 4.58582 18.4142ZM16.5858 18.4142C16.9608 18.7893 17.4696 19 18 19C18.5304 19 19.0392 18.7893 19.4142 18.4142C19.7893 18.0392 20 17.5304 20 17C20 16.4696 19.7893 15.9608 19.4142 15.5858C19.0392 15.2107 18.5304 15 18 15C17.4696 15 16.9608 15.2107 16.5858 15.5858C16.2107 15.9608 16 16.4696 16 17C16 17.5304 16.2107 18.0392 16.5858 18.4142ZM4 17L2 17L2 6C2 5.73474 2.10535 5.48047 2.29285 5.29285C2.48047 5.10535 2.73474 5 3 5L17 5C18.326 5 19.5979 5.73755 20.5355 7.05029C21.4733 8.36304 22 10.1434 22 12L22 17L20 17M16 17L8 17M16 5L17.5 12L22 12M2 10L17 10M7 5L7 10M12 5L12 10" stroke="#1DD100" stroke-opacity="1.000000" stroke-width="1.500000" stroke-linejoin="round"/>
	</g>
</svg>
